<svg width="42" height="60" viewBox="0 0 42 60" fill="none" xmlns="http://www.w3.org/2000/svg">
<g clip-path="url(#clip0_344_95)">
<path d="M31.2334 34.7998L39.0093 54.2932L30.2623 52.4291L30.293 52.4165L25.2979 59.9587L17.522 40.4653L31.2334 34.7998Z" fill="url(#paint0_linear_344_95)"/>
<path d="M24.6673 40.62L16.6221 60L11.732 52.387L11.7623 52.4L2.99023 54.1385L11.0355 34.7585L24.6673 40.62Z" fill="url(#paint1_linear_344_95)"/>
<path d="M42 21.3724C42 22.4761 40.676 23.4616 40.5125 24.5187C40.345 25.6042 41.3034 26.9557 40.9772 27.9784C40.645 29.019 39.0863 29.5392 38.6042 30.5004C38.1168 31.4717 38.6161 33.0605 37.9903 33.9358C37.3614 34.8152 35.7215 34.8205 34.9676 35.5878C34.2138 36.355 34.2086 38.0243 33.3445 38.664C32.4844 39.3009 30.9234 38.7932 29.969 39.2888C29.0146 39.7843 28.5133 41.3658 27.4909 41.7039C26.486 42.0359 25.1581 41.0605 24.0915 41.231C23.0528 41.397 22.0845 42.7448 21 42.7448C19.9155 42.7448 18.9472 41.3974 17.9085 41.231C16.8419 41.0605 15.514 42.0359 14.5091 41.7039C13.4867 41.3658 12.9755 39.7795 12.031 39.2888C11.0766 38.7928 9.51558 39.3009 8.65548 38.664C7.79141 38.0239 7.78624 36.355 7.03236 35.5878C6.27848 34.8205 4.63824 34.8152 4.00968 33.9358C3.38112 33.0564 3.88277 31.4717 3.39584 30.5004C2.91367 29.5392 1.35499 29.019 1.02281 27.9784C0.696592 26.9557 1.65495 25.6042 1.48747 24.5187C1.32436 23.4616 0 22.4761 0 21.3724C0 20.2687 1.32396 19.2832 1.48747 18.2261C1.65495 17.1406 0.696592 15.7891 1.02281 14.7664C1.35499 13.7258 2.91367 13.2056 3.39584 12.2444C3.88317 11.2731 3.3839 9.68433 4.00968 8.80898C4.63864 7.92958 6.27848 7.92432 7.03236 7.15707C7.78624 6.38982 7.79141 4.7205 8.65548 4.08079C9.51558 3.44391 11.0766 3.95163 12.031 3.45606C12.9755 2.96534 13.4867 1.37902 14.5091 1.04095C15.5315 0.702872 16.8419 1.6843 17.9085 1.51385C18.9472 1.34785 19.9155 0 21 0C22.0845 0 23.0528 1.34744 24.0915 1.51385C25.1581 1.6843 26.486 0.708945 27.4909 1.04095C28.5133 1.37902 29.0245 2.96534 29.969 3.45606C30.9234 3.95204 32.4844 3.44391 33.3445 4.08079C34.2086 4.7209 34.2138 6.38982 34.9676 7.15707C35.7215 7.92432 37.3618 7.92958 37.9903 8.80898C38.6161 9.68433 38.1172 11.2731 38.6042 12.2444C39.0863 13.2056 40.645 13.7258 40.9772 14.7664C41.3034 15.7891 40.345 17.1406 40.5125 18.2261C40.6756 19.2832 42 20.2687 42 21.3724Z" fill="url(#paint2_linear_344_95)"/>
<path d="M21.0002 37.3347C29.6624 37.3347 36.6844 30.1881 36.6844 21.3723C36.6844 12.5565 29.6624 5.40991 21.0002 5.40991C12.338 5.40991 5.31592 12.5565 5.31592 21.3723C5.31592 30.1881 12.338 37.3347 21.0002 37.3347Z" fill="white"/>
<path d="M20.9999 35.8324C28.8467 35.8324 35.2079 29.3585 35.2079 21.3725C35.2079 13.3865 28.8467 6.9126 20.9999 6.9126C13.1531 6.9126 6.79199 13.3865 6.79199 21.3725C6.79199 29.3585 13.1531 35.8324 20.9999 35.8324Z" fill="url(#paint3_linear_344_95)"/>
<path d="M29.8774 15.517L19.4687 28.7724L18.3568 30.1883L16.9409 28.9793L12.1221 24.8625L15.2506 21.6789L17.9446 24.9451L25.8454 12.5562L29.8774 15.517Z" fill="white"/>
</g>
<defs>
<linearGradient id="paint0_linear_344_95" x1="25.8775" y1="41.6763" x2="33.4302" y2="59.0879" gradientUnits="userSpaceOnUse">
<stop stop-color="#57111F"/>
<stop offset="0.33" stop-color="#8A1C32"/>
</linearGradient>
<linearGradient id="paint1_linear_344_95" x1="17.0876" y1="39.6584" x2="10.2795" y2="55.2316" gradientUnits="userSpaceOnUse">
<stop stop-color="#691525"/>
<stop offset="0.33" stop-color="#9B1F37"/>
</linearGradient>
<linearGradient id="paint2_linear_344_95" x1="6.65363" y1="9.8483" x2="36.6621" y2="33.1207" gradientUnits="userSpaceOnUse">
<stop stop-color="#F2BD27"/>
<stop offset="1" stop-color="#F28B27"/>
</linearGradient>
<linearGradient id="paint3_linear_344_95" x1="11.2866" y1="13.57" x2="31.604" y2="29.3268" gradientUnits="userSpaceOnUse">
<stop stop-color="#F2BD27"/>
<stop offset="1" stop-color="#F28B27"/>
</linearGradient>
<clipPath id="clip0_344_95">
<rect width="42" height="60" fill="white"/>
</clipPath>
</defs>
</svg>
