<svg width="49" height="47" viewBox="0 0 49 47" fill="none" xmlns="http://www.w3.org/2000/svg">
<path d="M42.0429 38.464H42.1999C44.1021 38.464 45.6499 36.9774 45.6499 35.1501V25.9814C45.6499 24.3186 44.3628 22.9419 42.6567 22.7103V19.1581C42.6567 16.2333 41.8803 13.3509 40.4198 10.7997C40.9787 9.63478 40.8183 8.30216 39.9896 7.30699C36.1971 2.75212 30.5516 0.140137 24.5003 0.140137C18.449 0.140137 12.8034 2.75212 9.01094 7.30699C8.18215 8.30216 8.02185 9.63478 8.58066 10.7997C7.12023 13.3509 6.34379 16.2333 6.34379 19.1581V22.7045C4.65692 22.9201 3.3501 24.3057 3.3501 25.9813V35.15C3.3501 36.9774 4.898 38.464 6.80067 38.464H9.05975C9.30063 39.3183 10.1078 39.952 11.0737 39.952C12.2287 39.952 13.1681 39.0509 13.1681 37.9431V23.1916C13.1681 22.0838 12.2287 21.1827 11.0737 21.1827C10.7363 21.1827 10.4218 21.2668 10.1393 21.4034V19.1581C10.1393 16.9459 10.7048 14.7585 11.7663 12.8068C12.9618 12.8251 13.9505 12.3316 14.5833 11.5715C17.0126 8.65439 20.6272 6.98148 24.5003 6.98148C28.3734 6.98148 31.988 8.65439 34.4169 11.5711C35.0581 12.3411 36.0521 12.8249 37.2343 12.8068C38.2958 14.7585 38.8613 16.9459 38.8613 19.1581V21.4035C38.5785 21.2669 38.264 21.1826 37.9263 21.1826C36.7714 21.1826 35.8319 22.0837 35.8319 23.1915V37.9431C35.8319 39.0509 36.7714 39.952 37.9263 39.952C38.8922 39.952 39.6998 39.3183 39.9408 38.464H41.028V40.7561C41.028 42.2266 39.7784 43.4233 38.2424 43.4233H29.0678C28.713 42.0109 26.8371 40.9633 24.5002 40.9633C21.9019 40.9633 19.8664 42.257 19.8664 43.909C19.8664 45.5638 21.9019 46.8599 24.5002 46.8599C26.8364 46.8599 28.7121 45.8108 29.0675 44.3966H38.2424C40.3378 44.3966 42.0428 42.7636 42.0428 40.7561V38.464H42.0429ZM24.5003 45.8867C22.5387 45.8867 20.8813 44.9808 20.8813 43.9091C20.8813 42.8397 22.5387 41.9367 24.5003 41.9367C26.4619 41.9367 28.1188 42.8397 28.1188 43.9091C28.1187 44.9808 26.4618 45.8867 24.5003 45.8867ZM8.97926 37.4907H6.80058C5.45729 37.4907 4.36474 36.4408 4.36474 35.1501V25.9814C4.36474 24.6935 5.45729 23.6456 6.85111 23.6456H8.97916L8.97926 37.4907ZM11.0736 22.1561C11.6692 22.1561 12.1533 22.6204 12.1533 23.1916V37.9432C12.1533 38.5144 11.6692 38.9788 11.0736 38.9788C10.4781 38.9788 9.994 38.5144 9.994 37.9432V23.1916C9.994 22.6204 10.4781 22.1561 11.0736 22.1561ZM9.12444 19.1581V22.471C9.09822 22.5361 9.07841 22.6039 9.05917 22.6721H7.35853V19.1581C7.35853 16.5679 8.005 14.0143 9.22168 11.7197C9.63282 12.1443 10.1464 12.4573 10.7186 12.6364C9.67789 14.6556 9.12444 16.8949 9.12444 19.1581ZM35.2097 10.9636C32.5875 7.81417 28.6841 6.00816 24.5003 6.00816C20.3169 6.00816 16.413 7.81463 13.7904 10.9642C12.7148 12.2549 10.3774 12.147 9.51788 10.4333C9.09181 9.5831 9.19832 8.64163 9.80374 7.91441C13.4025 3.59243 18.7591 1.11346 24.5003 1.11346C30.2415 1.11346 35.5981 3.59243 39.1968 7.91441C39.8024 8.64154 39.9089 9.58301 39.4827 10.4333C38.6352 12.123 36.3009 12.2738 35.2097 10.9636ZM39.0065 37.9432C39.0065 38.5144 38.522 38.9788 37.9264 38.9788C37.3308 38.9788 36.8468 38.5144 36.8468 37.9432V23.1916C36.8468 22.6204 37.3308 22.1561 37.9264 22.1561C38.522 22.1561 39.0065 22.6204 39.0065 23.1916V37.9432ZM39.8761 22.4711V19.1581C39.8761 16.8949 39.3226 14.6556 38.2819 12.6364C38.854 12.4573 39.3677 12.1443 39.7788 11.7197C40.9955 14.0143 41.642 16.5679 41.642 19.1581V22.6721H39.9412C39.9222 22.6039 39.9024 22.5362 39.8761 22.4711ZM40.0212 37.4907V23.6455H42.1999C43.5426 23.6455 44.6352 24.6934 44.6352 25.9813V35.15C44.6352 36.4408 43.5426 37.4906 42.1999 37.4906H40.0212V37.4907Z" fill="#8C0B94"/>
</svg>
