<svg width="38" height="37" viewBox="0 0 38 37" fill="none" xmlns="http://www.w3.org/2000/svg">
<g clip-path="url(#clip0_0_364)">
<path d="M37.4192 19.1406H37.3837C37.2389 19.1315 37.1037 19.0652 37.0078 18.9564C36.9119 18.8476 36.8632 18.7051 36.8723 18.5604C36.8948 18.2109 36.9062 17.8555 36.9062 17.5C36.9062 13.1488 35.1777 8.9758 32.101 5.89903C29.0242 2.82226 24.8512 1.09375 20.5 1.09375C16.1488 1.09375 11.9758 2.82226 8.89903 5.89903C5.82226 8.9758 4.09375 13.1488 4.09375 17.5C4.09375 17.8555 4.10523 18.2109 4.12766 18.5593C4.13679 18.7043 4.08794 18.8471 3.99184 18.9561C3.89574 19.0651 3.76027 19.1315 3.61523 19.1406C3.47019 19.1498 3.32746 19.1009 3.21844 19.0048C3.10942 18.9087 3.04304 18.7732 3.03391 18.6282C3.0113 18.2552 3 17.8792 3 17.5C3 12.8587 4.84374 8.40752 8.12563 5.12563C11.4075 1.84374 15.8587 0 20.5 0C25.1413 0 29.5925 1.84374 32.8744 5.12563C36.1563 8.40752 38 12.8587 38 17.5C38 17.8788 37.9882 18.2549 37.9645 18.6282C37.9557 18.7669 37.8945 18.8971 37.7932 18.9923C37.6919 19.0874 37.5582 19.1405 37.4192 19.1406Z" fill="#8C0B94"/>
<path d="M31.9614 19.1406H31.9373C31.7925 19.1344 31.656 19.0708 31.5579 18.964C31.4599 18.8571 31.4083 18.7157 31.4145 18.5708C31.4298 18.2175 31.4375 17.8598 31.4375 17.5005C31.4375 8.45359 26.5309 1.09375 20.5 1.09375C14.4691 1.09375 9.5625 8.45359 9.5625 17.5C9.5625 17.8593 9.57016 18.217 9.58547 18.5702C9.58856 18.6421 9.57747 18.7138 9.55284 18.7813C9.52821 18.8488 9.49052 18.9109 9.44192 18.9638C9.39332 19.0168 9.33477 19.0597 9.2696 19.09C9.20443 19.1203 9.13393 19.1375 9.06211 19.1406C8.99029 19.1437 8.91857 19.1326 8.85104 19.108C8.78351 19.0834 8.72149 19.0457 8.66852 18.9971C8.61556 18.9485 8.57268 18.8899 8.54235 18.8248C8.51201 18.7596 8.49481 18.6891 8.49172 18.6173C8.47641 18.2476 8.46875 17.8752 8.46875 17.5C8.46875 7.85039 13.8659 0 20.5 0C27.1341 0 32.5312 7.85039 32.5312 17.5C32.5312 17.8755 32.5232 18.2479 32.5072 18.6173C32.5011 18.758 32.441 18.891 32.3393 18.9885C32.2376 19.086 32.1023 19.1405 31.9614 19.1406Z" fill="#8C0B94"/>
<path d="M25.412 19.1406H25.4016C25.3298 19.1393 25.2589 19.1239 25.193 19.0952C25.1271 19.0665 25.0675 19.0251 25.0176 18.9733C24.9677 18.9216 24.9285 18.8605 24.9023 18.7936C24.876 18.7267 24.8632 18.6552 24.8646 18.5834C24.8715 18.2257 24.875 17.8646 24.875 17.5C24.875 7.83125 22.5694 1.09375 20.5 1.09375C18.4306 1.09375 16.125 7.83125 16.125 17.5C16.125 17.8646 16.1285 18.2257 16.1354 18.5834C16.1368 18.6552 16.124 18.7267 16.0977 18.7936C16.0715 18.8605 16.0323 18.9216 15.9824 18.9733C15.9325 19.0251 15.8729 19.0665 15.807 19.0952C15.7411 19.1239 15.6702 19.1393 15.5984 19.1406C15.5261 19.1437 15.454 19.1321 15.3864 19.1065C15.3188 19.0809 15.2571 19.0419 15.205 18.9917C15.153 18.9415 15.1116 18.8813 15.0835 18.8147C15.0555 18.7481 15.0412 18.6764 15.0416 18.6041C15.0347 18.2392 15.0312 17.8711 15.0312 17.5C15.0312 9.01633 16.9453 0 20.5 0C24.0547 0 25.9688 9.01633 25.9688 17.5C25.9688 17.8708 25.9653 18.2388 25.9584 18.6041C25.9556 18.7473 25.8969 18.8836 25.7948 18.9839C25.6926 19.0843 25.5552 19.1405 25.412 19.1406Z" fill="#8C0B94"/>
<path d="M35.2656 18.0469H3.54688C3.40183 18.0469 3.26273 17.9893 3.16018 17.8867C3.05762 17.7841 3 17.645 3 17.5C3 17.355 3.05762 17.2159 3.16018 17.1133C3.26273 17.0107 3.40183 16.9531 3.54688 16.9531H35.2656C35.4107 16.9531 35.5498 17.0107 35.6523 17.1133C35.7549 17.2159 35.8125 17.355 35.8125 17.5C35.8125 17.645 35.7549 17.7841 35.6523 17.8867C35.5498 17.9893 35.4107 18.0469 35.2656 18.0469Z" fill="#8C0B94"/>
<path d="M31.9844 8.20312H6.82812C6.68308 8.20312 6.54399 8.14551 6.44143 8.04295C6.33887 7.94039 6.28125 7.80129 6.28125 7.65625C6.28125 7.51121 6.33887 7.37211 6.44143 7.26955C6.54399 7.16699 6.68308 7.10938 6.82812 7.10938H31.9844C32.1294 7.10938 32.2685 7.16699 32.3711 7.26955C32.4736 7.37211 32.5312 7.51121 32.5312 7.65625C32.5312 7.80129 32.4736 7.94039 32.3711 8.04295C32.2685 8.14551 32.1294 8.20312 31.9844 8.20312Z" fill="#8C0B94"/>
<path d="M10.1094 28.4375C9.09445 28.4363 8.12142 28.0327 7.40376 27.315C6.6861 26.5973 6.28241 25.6243 6.28125 24.6094V23.5156C6.28125 22.5003 6.68457 21.5266 7.40248 20.8087C8.12039 20.0908 9.09409 19.6875 10.1094 19.6875C11.1247 19.6875 12.0984 20.0908 12.8163 20.8087C13.5342 21.5266 13.9375 22.5003 13.9375 23.5156V24.6094C13.9363 25.6243 13.5327 26.5973 12.815 27.315C12.0973 28.0327 11.1243 28.4363 10.1094 28.4375ZM10.1094 20.7812C9.38444 20.7821 8.68945 21.0705 8.17684 21.5831C7.66423 22.0957 7.37587 22.7907 7.375 23.5156V24.6094C7.375 25.3346 7.66309 26.0301 8.17588 26.5429C8.68867 27.0557 9.38417 27.3438 10.1094 27.3438C10.8346 27.3438 11.5301 27.0557 12.0429 26.5429C12.5557 26.0301 12.8438 25.3346 12.8438 24.6094V23.5156C12.8429 22.7907 12.5545 22.0957 12.0419 21.5831C11.5293 21.0705 10.8343 20.7821 10.1094 20.7812Z" fill="#8C0B94"/>
<path d="M3.54691 35.0003C3.40187 35.0003 3.26277 34.9427 3.16021 34.8402C3.05765 34.7376 3.00003 34.5985 3.00003 34.4535V32.1446C2.99695 31.5351 3.19891 30.9422 3.57345 30.4614C3.94798 29.9805 4.47333 29.6396 5.06503 29.4933C6.72062 29.1259 8.4138 28.9552 10.1094 28.9847C11.0407 28.982 11.9716 29.0261 12.8985 29.1171C12.9699 29.1242 13.0393 29.1454 13.1025 29.1794C13.1658 29.2134 13.2218 29.2595 13.2672 29.3151C13.3127 29.3707 13.3467 29.4347 13.3674 29.5035C13.3881 29.5723 13.3951 29.6444 13.3879 29.7159C13.3807 29.7874 13.3596 29.8567 13.3256 29.92C13.2916 29.9832 13.2455 30.0392 13.1899 30.0846C13.1343 30.1301 13.0703 30.1641 13.0015 30.1849C12.9327 30.2056 12.8606 30.2125 12.7891 30.2053C11.8986 30.1178 11.0042 30.0754 10.1094 30.0785C8.50174 30.0491 6.89621 30.209 5.32589 30.5548C4.97199 30.6432 4.65809 30.8481 4.43463 31.1364C4.21117 31.4247 4.09112 31.7798 4.09378 32.1446V34.4535C4.09378 34.5985 4.03617 34.7376 3.93361 34.8402C3.83105 34.9427 3.69195 35.0003 3.54691 35.0003Z" fill="#8C0B94"/>
<path d="M20.5 28.4375C19.4851 28.4363 18.512 28.0327 17.7944 27.315C17.0767 26.5973 16.673 25.6243 16.6719 24.6094V23.5156C16.6719 22.5003 17.0752 21.5266 17.7931 20.8087C18.511 20.0908 19.4847 19.6875 20.5 19.6875C21.5153 19.6875 22.489 20.0908 23.2069 20.8087C23.9248 21.5266 24.3281 22.5003 24.3281 23.5156V24.6094C24.327 25.6243 23.9233 26.5973 23.2056 27.315C22.488 28.0327 21.5149 28.4363 20.5 28.4375ZM20.5 20.7812C19.7751 20.7821 19.0801 21.0705 18.5675 21.5831C18.0549 22.0957 17.7665 22.7907 17.7656 23.5156V24.6094C17.7656 25.3346 18.0537 26.0301 18.5665 26.5429C19.0793 27.0557 19.7748 27.3438 20.5 27.3438C21.2252 27.3438 21.9207 27.0557 22.4335 26.5429C22.9463 26.0301 23.2344 25.3346 23.2344 24.6094V23.5156C23.2335 22.7907 22.9451 22.0957 22.4325 21.5831C21.9199 21.0705 21.2249 20.7821 20.5 20.7812Z" fill="#8C0B94"/>
<path d="M27.0625 35.0003C26.9175 35.0003 26.7784 34.9427 26.6758 34.8402C26.5733 34.7376 26.5157 34.5985 26.5157 34.4535V32.1446C26.5184 31.7799 26.3984 31.4248 26.175 31.1365C25.9517 30.8482 25.6379 30.6433 25.2841 30.5548C23.7136 30.209 22.1079 30.0492 20.5 30.0785C18.8924 30.0491 17.2868 30.209 15.7165 30.5548C15.3626 30.6432 15.0487 30.8481 14.8253 31.1364C14.6018 31.4247 14.4817 31.7798 14.4844 32.1446V34.4535C14.4844 34.5985 14.4268 34.7376 14.3242 34.8402C14.2217 34.9427 14.0826 35.0003 13.9375 35.0003C13.7925 35.0003 13.6534 34.9427 13.5508 34.8402C13.4483 34.7376 13.3907 34.5985 13.3907 34.4535V32.1446C13.3876 31.5351 13.5895 30.9422 13.9641 30.4614C14.3386 29.9805 14.864 29.6396 15.4557 29.4933C17.1112 29.1259 18.8044 28.9552 20.5 28.9847C22.1958 28.9552 23.8892 29.1259 25.545 29.4933C26.1366 29.6397 26.6618 29.9807 27.0362 30.4615C27.4106 30.9424 27.6125 31.5351 27.6094 32.1446V34.4535C27.6094 34.5985 27.5518 34.7376 27.4492 34.8402C27.3467 34.9427 27.2076 35.0003 27.0625 35.0003Z" fill="#8C0B94"/>
<path d="M30.8906 28.4375C29.8757 28.4363 28.9027 28.0327 28.185 27.315C27.4673 26.5973 27.0637 25.6243 27.0625 24.6094V23.5156C27.0625 22.5003 27.4658 21.5266 28.1837 20.8087C28.9016 20.0908 29.8753 19.6875 30.8906 19.6875C31.9059 19.6875 32.8796 20.0908 33.5975 20.8087C34.3154 21.5266 34.7188 22.5003 34.7188 23.5156V24.6094C34.7176 25.6243 34.3139 26.5973 33.5962 27.315C32.8786 28.0327 31.9056 28.4363 30.8906 28.4375ZM30.8906 20.7812C30.1657 20.7821 29.4707 21.0705 28.9581 21.5831C28.4455 22.0957 28.1571 22.7907 28.1562 23.5156V24.6094C28.1562 25.3346 28.4443 26.0301 28.9571 26.5429C29.4699 27.0557 30.1654 27.3438 30.8906 27.3438C31.6158 27.3438 32.3113 27.0557 32.8241 26.5429C33.3369 26.0301 33.625 25.3346 33.625 24.6094V23.5156C33.6241 22.7907 33.3358 22.0957 32.8232 21.5831C32.3106 21.0705 31.6156 20.7821 30.8906 20.7812Z" fill="#8C0B94"/>
<path d="M37.4531 35.0003C37.3081 35.0003 37.169 34.9427 37.0664 34.8402C36.9639 34.7376 36.9063 34.5985 36.9063 34.4535V32.1446C36.909 31.7799 36.789 31.4248 36.5656 31.1365C36.3423 30.8482 36.0285 30.6433 35.6747 30.5548C34.1042 30.209 32.4985 30.0492 30.8906 30.0785C29.9958 30.0754 29.1015 30.1178 28.2109 30.2053C28.0666 30.2198 27.9225 30.1764 27.8102 30.0846C27.6979 29.9928 27.6266 29.8602 27.6121 29.7159C27.5976 29.5716 27.641 29.4274 27.7328 29.3151C27.8246 29.2028 27.9573 29.1316 28.1016 29.1171C29.0284 29.0261 29.9593 28.9819 30.8906 28.9847C32.5864 28.9552 34.2798 29.1259 35.9356 29.4933C36.5272 29.6396 37.0524 29.9806 37.4268 30.4615C37.8012 30.9424 38.0031 31.5351 38 32.1446V34.4535C38 34.5985 37.9424 34.7376 37.8398 34.8402C37.7373 34.9427 37.5982 35.0003 37.4531 35.0003Z" fill="#8C0B94"/>
</g>
<defs>
<clipPath id="clip0_0_364">
<rect width="38" height="37" fill="white"/>
</clipPath>
</defs>
</svg>
