<svg width="30" height="84" viewBox="0 0 30 84" fill="none" xmlns="http://www.w3.org/2000/svg">
<g clip-path="url(#clip0_344_54)">
<path d="M26.3732 22.7612C26.3732 22.7612 25.1737 31.7352 23.1236 31.5641C21.0736 31.3931 23.3924 24.3483 23.3924 24.3483L26.3732 22.7572V22.7612Z" fill="#E29F93"/>
<path opacity="0.1" d="M15 83.9881C23.2843 83.9881 30 83.0495 30 81.8917C30 80.734 23.2843 79.7954 15 79.7954C6.71573 79.7954 0 80.734 0 81.8917C0 83.0495 6.71573 83.9881 15 83.9881Z" fill="#222221"/>
<path d="M16.1917 45.1286L6.88436 81.8639L3.20557 81.4462L5.32779 77.6553L11.0767 42.3719L16.1917 45.1286Z" fill="#F2AEA0"/>
<path opacity="0.2" d="M5.89746 74.1628L11.0767 42.368L16.1957 45.1246L8.69767 74.7197C7.76695 74.5208 6.83621 74.3378 5.90147 74.1588L5.89746 74.1628Z" fill="#231E2D"/>
<path d="M17.4995 43.1953L18.5747 79.8988L21.2545 78.1804L24.7728 41.4968L17.4995 43.1953Z" fill="#F2AEA0"/>
<path opacity="0.2" d="M18.4182 74.5208L17.4995 43.1914L24.7728 41.4928L21.6076 74.481C20.5444 74.4452 19.4653 74.5009 18.4182 74.5168V74.5208Z" fill="#231E2D"/>
<path d="M23.5171 23.8193L22.791 33.1314L11.1528 31.6039L14.5468 25.7446L23.5171 23.8193Z" fill="#527FA8"/>
<path d="M17.6035 0.815452C17.6035 0.815452 21.2462 -0.723972 22.6824 1.32064C24.1186 3.36922 22.5259 5.1871 24.0303 5.85935C25.5347 6.5316 28.6759 6.72254 28.0983 9.24051C27.5206 11.7585 25.5267 10.1554 25.9881 12.5779C26.4494 15.0004 24.1747 16.7109 21.6594 15.6607C19.144 14.6106 18.0528 15.3425 16.0268 14.905C14.0009 14.4674 17.6075 0.815452 17.6075 0.815452H17.6035Z" fill="#231E2D"/>
<path d="M17.8202 11.5596L18.3939 15.3187L21.3305 15.3942L17.8442 19.6386L12.4604 16.325L14.8555 15.6568L14.5385 10.5612L17.8202 11.5596Z" fill="#F2AEA0"/>
<path d="M17.9566 2.93962C17.9566 2.93962 22.1609 3.77894 22.0606 8.795C21.9603 13.8111 18.1491 14.4356 15.8744 13.6559C13.5998 12.8763 12.4685 10.1117 12.3922 8.60406C12.32 7.09248 14.1133 2.37079 17.9566 2.9436V2.93962Z" fill="#FFC0B1"/>
<path d="M17.0141 0.548944C17.0141 0.548944 18.7232 1.17744 18.671 3.2857C18.671 3.2857 18.5105 5.43373 16.8416 5.66444C15.1727 5.89118 15.1406 6.86973 15.2169 7.45447C15.2851 7.99148 16.8256 9.28825 15.1768 10.8317C14.4306 11.5318 16.0353 12.6416 15.1888 13.9344C14.5148 14.9686 13.0425 16.0546 9.9775 15.2908C8.14413 14.8334 6.06202 13.107 5.50438 10.6009C4.50946 6.15372 8.63356 8.21424 8.32466 5.68433C7.8954 2.18383 9.82506 3.43288 11.6103 2.35886C12.7296 1.68661 13.901 -1.18937 17.0182 0.548944H17.0141Z" fill="#2C263A"/>
<path d="M23.1721 27.5266C23.1721 27.5266 19.6297 28.9666 13.4115 27.9085C13.4115 27.9085 7.80305 32.9882 6.95656 39.4442C6.35881 43.975 3.70703 72.3927 3.70703 72.3927L12.1358 73.0251L19.8383 36.7751L16.0151 40.1443L17.1465 72.7069L25.9723 73.3911C25.9723 73.3911 29.0373 44.3529 23.1721 27.5266Z" fill="#527FA8"/>
<path d="M12.8459 71.8318L3.26575 69.5247L2.85254 73.1286L12.4768 74.2503L12.8459 71.8318Z" fill="#6D93AF"/>
<path d="M18.9196 6.73449C18.4823 6.63902 18.1052 6.55548 17.7201 6.54355C17.5315 6.53162 17.343 6.54355 17.1504 6.57537C16.9538 6.59924 16.7613 6.65891 16.5366 6.70266C16.665 6.51968 16.8415 6.36455 17.0582 6.27306C17.2668 6.16963 17.5075 6.12986 17.7402 6.13781C17.9728 6.14974 18.2015 6.20543 18.4061 6.30488C18.6107 6.40433 18.7952 6.54355 18.9236 6.73051L18.9196 6.73449Z" fill="#231E2D"/>
<path d="M22.3093 7.02487C21.9201 6.8578 21.5952 6.71062 21.2743 6.68675C21.1178 6.66686 20.9613 6.68675 20.7969 6.73449C20.6284 6.77824 20.4639 6.86575 20.2593 6.94531C20.3315 6.74642 20.4559 6.55946 20.6484 6.43615C20.8289 6.3009 21.0777 6.24123 21.3144 6.26112C21.5511 6.28499 21.7637 6.38046 21.9362 6.5157C22.1047 6.65095 22.2451 6.81802 22.3093 7.02487Z" fill="#231E2D"/>
<path d="M19.3847 8.97798C19.5853 9.14107 19.7377 9.332 19.8862 9.52692C20.0266 9.72581 20.155 9.92868 20.2633 10.1475L20.3556 10.3344L20.179 10.406C19.9103 10.5174 19.6294 10.6049 19.3125 10.6129C19.5171 10.3702 19.7578 10.2071 20.0146 10.0639L19.9303 10.3265C19.8019 10.1236 19.6936 9.90481 19.5973 9.68603C19.5051 9.4593 19.4208 9.23256 19.3847 8.974V8.97798Z" fill="#C4817A"/>
<path d="M16.6851 11.4283L19.2406 12.0011C19.2406 12.0011 18.8634 9.89686 16.6851 11.4283Z" fill="white"/>
<path opacity="0.2" d="M18.5266 39.0226C21.2586 37.5627 23.3647 35.7966 24.9374 34.1497C28.3353 51.0038 25.9684 73.3951 25.9684 73.3951L17.1425 72.7109L16.4485 52.7103L16.0874 54.4128C17.4675 46.3975 18.5266 39.0226 18.5266 39.0226Z" fill="#231E2D"/>
<path d="M26.5419 69.7275L16.3921 71.8159L16.5405 73.9162L26.2049 73.8486L26.5419 69.7275Z" fill="#6D93AF"/>
<path opacity="0.2" d="M13.8727 26.9061L14.5426 25.7446L23.5129 23.8233L23.2201 27.5863C20.6205 27.7971 16.9256 27.8449 13.8687 26.9061H13.8727Z" fill="#231E2D"/>
<path d="M19.4811 15.3385C19.4811 15.3385 20.9654 15.0243 22.1369 15.442C23.3043 15.8636 25.1096 19.5471 25.5348 21.1263C25.9601 22.7055 26.0644 25.128 26.0644 25.128C26.0644 25.128 16.6167 28.179 13.0061 26.393L11.2008 21.6554C11.2008 21.6554 8.33639 16.3927 10.9882 16.1818L13.4313 15.8676C13.4313 15.8676 19.0598 18.3935 19.4811 15.3425V15.3385Z" fill="white"/>
<path opacity="0.1" d="M24.6725 18.9385C21.2585 21.8344 16.8857 23.7875 12.5449 25.1718L13.0103 26.389C16.6209 28.179 26.0686 25.124 26.0686 25.124C26.0686 25.124 25.9643 22.7015 25.539 21.1223C25.3906 20.5734 25.0737 19.7659 24.6765 18.9345L24.6725 18.9385Z" fill="#231E2D"/>
<path d="M21.3424 77.9179L18.3697 78.6538L18.0527 80.8655L28.1383 81.2354C28.1383 81.2354 27.5366 80.1813 21.3424 77.9179Z" fill="white"/>
<path d="M28.1347 81.2354L18.0491 80.8655L17.9448 81.6014L28.0304 81.7088L28.1347 81.2354Z" fill="#2C263A"/>
<path d="M22.0928 78.0969C21.7638 78.4151 21.5432 78.8209 21.2824 79.1908C21.2423 79.2505 21.2704 79.338 21.3306 79.3698C21.3947 79.4096 21.471 79.3817 21.5111 79.3221C21.7598 78.968 21.9684 78.5822 22.2813 78.2799C22.4057 78.1605 22.2172 77.9736 22.0928 78.0929V78.0969Z" fill="#2C263A"/>
<path d="M22.7266 78.2839C22.3976 78.6021 22.177 79.0078 21.9162 79.3778C21.8761 79.4374 21.9042 79.5249 21.9643 79.5568C22.0285 79.5965 22.1048 79.5687 22.1449 79.509C22.3936 79.155 22.6022 78.7691 22.9151 78.4668C23.0395 78.3475 22.8509 78.1605 22.7266 78.2799V78.2839Z" fill="#2C263A"/>
<path d="M23.4209 78.5185C23.092 78.8368 22.8713 79.2425 22.6105 79.6124C22.5704 79.6721 22.5985 79.7596 22.6587 79.7914C22.7229 79.8312 22.7991 79.8034 22.8392 79.7437C23.0879 79.3897 23.2966 79.0038 23.6095 78.7015C23.7338 78.5822 23.5453 78.3952 23.4209 78.5146V78.5185Z" fill="#2C263A"/>
<path d="M8.12363 76.9712L7.38145 80.9172C7.38145 80.9172 6.05356 84.7598 3.45393 83.8648C0.854307 82.9697 5.36353 77.0746 5.36353 77.0746C5.36353 77.0746 6.69143 78.1804 8.12363 76.9712Z" fill="white"/>
<path d="M3.45401 83.2323C5.95334 83.8528 7.17693 81.0126 7.50589 80.2569L7.38153 80.9132C7.38153 80.9132 6.05363 84.7558 3.45401 83.8608C2.84823 83.6539 2.6316 83.1726 2.65165 82.556C2.79207 82.7589 3.02876 83.1209 3.45401 83.2283V83.2323Z" fill="#2C263A"/>
<path d="M6.67552 77.9776C6.29039 77.7309 5.84107 77.6076 5.41984 77.4405C5.35164 77.4127 5.27541 77.4684 5.25536 77.532C5.2353 77.6076 5.27943 77.6673 5.34763 77.6951C5.7488 77.8582 6.17405 77.9736 6.54313 78.2083C6.68756 78.2998 6.81994 78.073 6.67552 77.9815V77.9776Z" fill="#2C263A"/>
<path d="M6.3948 78.6617C5.99763 78.4271 5.54832 78.3236 5.11906 78.1685C5.05086 78.1446 4.97463 78.1963 4.95457 78.26C4.93451 78.3316 4.97864 78.3992 5.04684 78.4231C5.45604 78.5703 5.8853 78.6697 6.2584 78.8885C6.40683 78.976 6.53922 78.7493 6.39079 78.6617H6.3948Z" fill="#2C263A"/>
<path d="M5.99766 79.3141C5.63259 79.0556 5.20333 78.9203 4.79814 78.7373C4.73395 78.7095 4.65372 78.7174 4.61761 78.7851C4.58552 78.8407 4.60156 78.9362 4.66575 78.9641C5.07094 79.147 5.5002 79.2863 5.86527 79.5409C5.92545 79.5806 6.0137 79.5528 6.0458 79.4931C6.08592 79.4255 6.05783 79.3539 5.99766 79.3141Z" fill="#2C263A"/>
<path d="M16.7449 8.26595C16.8653 8.42108 16.9896 8.53644 17.122 8.63191C17.2544 8.7234 17.3908 8.79898 17.5112 8.81091C17.6275 8.83478 17.7198 8.79102 17.8361 8.6876C17.9484 8.58417 18.0327 8.42506 18.153 8.26595C18.1851 8.45688 18.1811 8.66373 18.0768 8.85864C18.0287 8.95809 17.9444 9.0456 17.8361 9.11322C17.7238 9.17687 17.5874 9.19676 17.463 9.18085C17.2183 9.14107 17.0338 8.99787 16.9094 8.83478C16.785 8.67168 16.7128 8.46484 16.7449 8.26595Z" fill="#231E2D"/>
<path d="M20.4559 8.42506C20.5762 8.5802 20.7006 8.69556 20.833 8.79103C20.9653 8.88252 21.1017 8.95809 21.2221 8.97003C21.3384 8.99389 21.4307 8.95014 21.5471 8.84671C21.6594 8.74329 21.7436 8.58418 21.864 8.42506C21.8961 8.616 21.8921 8.82285 21.7878 9.01776C21.7396 9.11721 21.6554 9.20472 21.5471 9.27234C21.4347 9.33599 21.2983 9.35588 21.174 9.33997C20.9292 9.30019 20.7447 9.15699 20.6203 8.99389C20.496 8.8308 20.4238 8.62396 20.4559 8.42506Z" fill="#231E2D"/>
<path d="M14.6428 21.186L16.2195 26.2299L22.3254 24.3881C22.3254 24.3881 21.864 22.5464 22.3254 22.3117C23.5249 21.6951 26.8226 21.9775 23.2481 22.6021C23.2481 22.6021 29.0611 22.6776 23.6693 23.3857C23.6693 23.3857 24.3473 25.6411 23.4808 26.1344C22.6142 26.6276 15.6177 30.4663 14.0411 30.4265C12.4604 30.3867 10.7715 22.7492 10.7715 22.7492L14.6428 21.186Z" fill="#FFC0B1"/>
<path d="M15.4892 22.0133L10.0011 24.2489C10.0011 24.2489 7.86285 17.1524 10.992 16.1818C14.1212 15.2112 15.4932 22.0133 15.4932 22.0133H15.4892Z" fill="white"/>
<path d="M22.7501 26.4132L24.2914 20.5838C24.3463 20.376 24.5618 20.2511 24.7714 20.3055L27.3015 20.9632C27.5111 21.0177 27.6371 21.2314 27.5821 21.4392L26.0409 27.2686C25.9859 27.4764 25.7704 27.6013 25.5609 27.5468L23.0307 26.8891C22.8211 26.8347 22.6952 26.621 22.7501 26.4132Z" fill="#2C263A"/>
<path d="M27.3202 24.0858C27.3202 24.0858 27.7133 22.8527 27.3844 22.789C27.0594 22.7254 23.2001 22.0134 26.7946 23.1112C26.7946 23.1112 22.0246 22.8527 26.5339 23.8233C26.5339 23.8233 22.8069 23.692 26.4015 24.5353C26.4015 24.5353 23.2643 24.7302 26.4657 25.311C26.4657 25.311 27.248 25.3746 27.3162 24.0779L27.3202 24.0858Z" fill="#FFC0B1"/>
</g>
<defs>
<clipPath id="clip0_344_54">
<rect width="30" height="84" fill="white"/>
</clipPath>
</defs>
</svg>
