<svg width="59" height="15" viewBox="0 0 59 15" fill="none" xmlns="http://www.w3.org/2000/svg">
<path d="M57.0164 0H1.51023C0.676151 0 0 1.37796 0 3.07776V11.2618C0 12.9616 0.676151 14.3396 1.51023 14.3396H57.0164C57.8505 14.3396 58.5267 12.9616 58.5267 11.2618V3.07776C58.5267 1.37796 57.8505 0 57.0164 0Z" fill="#C6B3C2"/>
<path d="M20.3035 0H1.10193C0.603643 0 0.199707 0.823197 0.199707 1.83866V12.5009C0.199707 13.5164 0.603643 14.3396 1.10193 14.3396H20.3035C20.8018 14.3396 21.2058 13.5164 21.2058 12.5009V1.83866C21.2058 0.823197 20.8018 0 20.3035 0Z" fill="#CFBFCC"/>
</svg>
