<svg width="67" height="23" viewBox="0 0 67 23" fill="none" xmlns="http://www.w3.org/2000/svg">
<path d="M45.7 3.07317C40.0589 2.23506 34.8694 1.50431 29.2909 2.08666C26.6341 2.02848 23.5385 2.39112 20.9294 2.8761C18.7383 3.28339 16.5489 3.77884 14.3842 4.28071C12.4461 4.73004 10.4394 5.05581 8.53392 5.59032C4.73261 6.65662 -0.581436 10.8854 1.72933 14.7205C2.81661 16.5249 4.94608 17.4637 7.12766 18.0537C11.8665 19.3354 16.9592 20.1477 21.8781 20.8208C34.422 22.5375 48.0331 22.9831 60.2123 19.3185C62.2448 18.707 64.9102 17.4433 65.8857 15.6674C66.7047 14.1764 66.5969 12.5209 66.1812 10.882C65.6158 8.65273 63.5122 7.60147 61.3848 6.50042C57.2177 4.34363 52.9866 3.64214 48.3607 2.42956C41.4316 0.613239 34.3359 0.450061 27.2302 0.550005C24.321 0.590925 21.5779 1.33913 18.7474 1.9096C17.0435 2.253 15.7294 2.2954 13.116 3.22465" stroke="#D9D9D9" stroke-linecap="round" stroke-dasharray="6 6"/>
</svg>
