<svg width="65" height="20" viewBox="0 0 65 20" fill="none" xmlns="http://www.w3.org/2000/svg">
<path d="M3.45459 10.7273V4.34345L4.8682 4.23438C6.09975 4.13935 7.30833 3.84884 8.44852 3.37376L10 2.72729L11.5515 3.37376C12.6918 3.84884 13.9003 4.13935 15.1319 4.23438L16.5455 4.34345V10.7273C16.5455 14.3423 13.615 17.2727 10 17.2727C6.38509 17.2727 3.45459 14.3423 3.45459 10.7273Z" fill="#4AB300"/>
<path d="M7.09082 9.99993L8.909 11.8181L12.909 7.81812" stroke="white" stroke-width="1.4" stroke-linecap="round" stroke-linejoin="round"/>
<path d="M25.5774 5.81889C25.549 5.53243 25.4271 5.3099 25.2116 5.15128C24.9962 4.99266 24.7038 4.91335 24.3345 4.91335C24.0836 4.91335 23.8717 4.94886 23.6989 5.01989C23.526 5.08854 23.3935 5.18442 23.3011 5.30753C23.2112 5.43063 23.1662 5.57031 23.1662 5.72656C23.1615 5.85677 23.1887 5.97041 23.2479 6.06747C23.3094 6.16454 23.3935 6.24858 23.5 6.3196C23.6065 6.38826 23.7296 6.44863 23.8693 6.50071C24.009 6.55043 24.1581 6.59304 24.3168 6.62855L24.9702 6.7848C25.2874 6.85582 25.5786 6.95052 25.8438 7.06889C26.1089 7.18726 26.3385 7.33286 26.5327 7.50568C26.7268 7.6785 26.8771 7.8821 26.9837 8.11648C27.0926 8.35085 27.1482 8.61955 27.1506 8.92259C27.1482 9.36766 27.0346 9.75355 26.8097 10.0803C26.5871 10.4046 26.2652 10.6567 25.8438 10.8366C25.4247 11.0142 24.9193 11.103 24.3274 11.103C23.7403 11.103 23.2289 11.013 22.7933 10.8331C22.3601 10.6532 22.0215 10.3868 21.7777 10.0341C21.5362 9.67898 21.4096 9.23982 21.3977 8.71662H22.8857C22.9022 8.96046 22.9721 9.16406 23.0952 9.32741C23.2206 9.4884 23.3875 9.61032 23.5959 9.69318C23.8066 9.77367 24.0445 9.81392 24.3097 9.81392C24.5701 9.81392 24.7962 9.77604 24.9879 9.70028C25.1821 9.62453 25.3324 9.51918 25.4389 9.38423C25.5455 9.24929 25.5987 9.09422 25.5987 8.91903C25.5987 8.75568 25.5502 8.61837 25.4531 8.5071C25.3584 8.39583 25.2188 8.30114 25.0341 8.22301C24.8518 8.14489 24.6281 8.07386 24.3629 8.00994L23.571 7.81108C22.9579 7.66193 22.4737 7.42874 22.1186 7.11151C21.7635 6.79427 21.5871 6.36695 21.5895 5.82955C21.5871 5.3892 21.7043 5.0045 21.9411 4.67543C22.1802 4.34635 22.508 4.08949 22.9247 3.90483C23.3414 3.72017 23.8149 3.62784 24.3452 3.62784C24.8849 3.62784 25.3561 3.72017 25.7585 3.90483C26.1634 4.08949 26.4782 4.34635 26.7031 4.67543C26.928 5.0045 27.044 5.38565 27.0511 5.81889H25.5774ZM28.1848 11V3.72727H33.0854V4.99503H29.7225V6.72798H32.8333V7.99574H29.7225V9.73224H33.0996V11H28.1848ZM40.7248 6.27344H39.1694C39.141 6.07221 39.083 5.89347 38.9954 5.73722C38.9078 5.5786 38.7953 5.44366 38.658 5.33239C38.5207 5.22112 38.3621 5.13589 38.1822 5.0767C38.0046 5.01752 37.8117 4.98793 37.6033 4.98793C37.2269 4.98793 36.899 5.08144 36.6197 5.26847C36.3403 5.45312 36.1237 5.72301 35.9698 6.07812C35.8159 6.43087 35.739 6.85937 35.739 7.36364C35.739 7.8821 35.8159 8.31771 35.9698 8.67045C36.1261 9.0232 36.3439 9.28954 36.6232 9.46946C36.9026 9.64938 37.2257 9.73935 37.5927 9.73935C37.7987 9.73935 37.9892 9.71212 38.1644 9.65767C38.342 9.60322 38.4994 9.52391 38.6367 9.41974C38.774 9.31321 38.8877 9.18419 38.9776 9.03267C39.07 8.88116 39.1339 8.70833 39.1694 8.5142L40.7248 8.52131C40.6845 8.85511 40.5839 9.17708 40.4229 9.48722C40.2643 9.79498 40.0501 10.0708 39.7802 10.3146C39.5127 10.5561 39.1931 10.7479 38.8214 10.8899C38.4521 11.0296 38.0342 11.0994 37.5678 11.0994C36.9192 11.0994 36.3391 10.9527 35.8278 10.6591C35.3188 10.3655 34.9163 9.94058 34.6204 9.38423C34.3268 8.82789 34.18 8.15436 34.18 7.36364C34.18 6.57055 34.3292 5.89583 34.6275 5.33949C34.9258 4.78314 35.3306 4.35937 35.842 4.06818C36.3533 3.77462 36.9286 3.62784 37.5678 3.62784C37.9892 3.62784 38.3799 3.68703 38.7397 3.8054C39.1019 3.92377 39.4227 4.09659 39.7021 4.32386C39.9814 4.54877 40.2087 4.82457 40.3839 5.15128C40.5614 5.47798 40.6751 5.85204 40.7248 6.27344ZM46.3196 3.72727H47.8572V8.45028C47.8572 8.98059 47.7306 9.4446 47.4773 9.84233C47.2263 10.2401 46.8748 10.5502 46.4226 10.7727C45.9704 10.9929 45.4437 11.103 44.8423 11.103C44.2386 11.103 43.7107 10.9929 43.2585 10.7727C42.8063 10.5502 42.4548 10.2401 42.2038 9.84233C41.9529 9.4446 41.8274 8.98059 41.8274 8.45028V3.72727H43.3651V8.31889C43.3651 8.59588 43.4254 8.84209 43.5462 9.05753C43.6693 9.27296 43.8421 9.44223 44.0646 9.56534C44.2872 9.68845 44.5464 9.75 44.8423 9.75C45.1406 9.75 45.3999 9.68845 45.62 9.56534C45.8426 9.44223 46.0142 9.27296 46.1349 9.05753C46.258 8.84209 46.3196 8.59588 46.3196 8.31889V3.72727ZM49.1223 11V3.72727H51.9917C52.5409 3.72727 53.0096 3.82552 53.3979 4.02202C53.7885 4.21615 54.0856 4.49195 54.2892 4.84943C54.4952 5.20455 54.5982 5.6224 54.5982 6.10298C54.5982 6.58594 54.494 7.00142 54.2857 7.34943C54.0774 7.69508 53.7755 7.96023 53.3801 8.14489C52.9872 8.32955 52.5113 8.42188 51.9526 8.42188H50.0314V7.18608H51.704C51.9976 7.18608 52.2414 7.14583 52.4355 7.06534C52.6297 6.98485 52.7741 6.86411 52.8688 6.70312C52.9658 6.54214 53.0144 6.34209 53.0144 6.10298C53.0144 5.86151 52.9658 5.65791 52.8688 5.49219C52.7741 5.32647 52.6285 5.20099 52.432 5.11577C52.2379 5.02817 51.9928 4.98438 51.6969 4.98438H50.66V11H49.1223ZM53.0499 7.69034L54.8574 11H53.16L51.3915 7.69034H53.0499ZM55.6848 11V3.72727H60.5854V4.99503H57.2225V6.72798H60.3333V7.99574H57.2225V9.73224H60.5996V11H55.6848Z" fill="#4F4F4F"/>
<path d="M23.3349 15.3633C23.3183 15.2082 23.2485 15.0875 23.1254 15.0011C23.0034 14.9147 22.8448 14.8714 22.6495 14.8714C22.5122 14.8714 22.3944 14.8922 22.2962 14.9336C22.1979 14.975 22.1228 15.0312 22.0707 15.1023C22.0186 15.1733 21.992 15.2544 21.9908 15.3455C21.9908 15.4213 22.0079 15.487 22.0423 15.5426C22.0778 15.5982 22.1257 15.6456 22.1861 15.6847C22.2464 15.7225 22.3133 15.7545 22.3867 15.7805C22.4601 15.8066 22.5341 15.8285 22.6087 15.8462L22.9496 15.9315C23.0869 15.9634 23.2189 16.0066 23.3455 16.0611C23.4734 16.1155 23.5876 16.1842 23.6882 16.267C23.79 16.3499 23.8705 16.4499 23.9297 16.5671C23.9889 16.6843 24.0185 16.8216 24.0185 16.979C24.0185 17.1921 23.964 17.3797 23.8551 17.5419C23.7462 17.7029 23.5888 17.829 23.3828 17.9201C23.178 18.0101 22.93 18.055 22.6388 18.055C22.3559 18.055 22.1103 18.0112 21.902 17.9237C21.6948 17.8361 21.5327 17.7082 21.4155 17.5401C21.2995 17.372 21.2367 17.1673 21.2273 16.9258H21.8754C21.8848 17.0524 21.9239 17.1578 21.9925 17.2418C22.0612 17.3259 22.1506 17.3886 22.2607 17.43C22.3719 17.4715 22.4962 17.4922 22.6335 17.4922C22.7768 17.4922 22.9022 17.4709 23.0099 17.4283C23.1188 17.3845 23.2041 17.3241 23.2656 17.2472C23.3272 17.169 23.3585 17.0779 23.3597 16.9737C23.3585 16.879 23.3307 16.8009 23.2763 16.7393C23.2218 16.6766 23.1455 16.6245 23.0472 16.5831C22.9502 16.5405 22.8365 16.5026 22.7063 16.4695L22.2926 16.3629C21.9931 16.286 21.7564 16.1694 21.5824 16.0131C21.4096 15.8557 21.3232 15.6468 21.3232 15.3864C21.3232 15.1721 21.3812 14.9845 21.4972 14.8235C21.6143 14.6625 21.7736 14.5376 21.9748 14.4489C22.176 14.3589 22.4039 14.3139 22.6584 14.3139C22.9164 14.3139 23.1425 14.3589 23.3366 14.4489C23.532 14.5376 23.6853 14.6613 23.7965 14.82C23.9078 14.9774 23.9652 15.1585 23.9688 15.3633H23.3349ZM26.3819 15.3633C26.3654 15.2082 26.2955 15.0875 26.1724 15.0011C26.0505 14.9147 25.8919 14.8714 25.6966 14.8714C25.5593 14.8714 25.4415 14.8922 25.3432 14.9336C25.245 14.975 25.1698 15.0312 25.1177 15.1023C25.0657 15.1733 25.039 15.2544 25.0378 15.3455C25.0378 15.4213 25.055 15.487 25.0893 15.5426C25.1248 15.5982 25.1728 15.6456 25.2331 15.6847C25.2935 15.7225 25.3604 15.7545 25.4338 15.7805C25.5072 15.8066 25.5812 15.8285 25.6557 15.8462L25.9966 15.9315C26.134 15.9634 26.2659 16.0066 26.3926 16.0611C26.5204 16.1155 26.6347 16.1842 26.7353 16.267C26.8371 16.3499 26.9176 16.4499 26.9768 16.5671C27.0359 16.6843 27.0655 16.8216 27.0655 16.979C27.0655 17.1921 27.0111 17.3797 26.9022 17.5419C26.7933 17.7029 26.6358 17.829 26.4299 17.9201C26.2251 18.0101 25.9771 18.055 25.6859 18.055C25.403 18.055 25.1574 18.0112 24.9491 17.9237C24.7419 17.8361 24.5797 17.7082 24.4626 17.5401C24.3465 17.372 24.2838 17.1673 24.2743 16.9258H24.9224C24.9319 17.0524 24.971 17.1578 25.0396 17.2418C25.1083 17.3259 25.1976 17.3886 25.3077 17.43C25.419 17.4715 25.5433 17.4922 25.6806 17.4922C25.8238 17.4922 25.9493 17.4709 26.057 17.4283C26.1659 17.3845 26.2511 17.3241 26.3127 17.2472C26.3742 17.169 26.4056 17.0779 26.4068 16.9737C26.4056 16.879 26.3778 16.8009 26.3233 16.7393C26.2689 16.6766 26.1925 16.6245 26.0943 16.5831C25.9972 16.5405 25.8836 16.5026 25.7534 16.4695L25.3397 16.3629C25.0402 16.286 24.8035 16.1694 24.6295 16.0131C24.4566 15.8557 24.3702 15.6468 24.3702 15.3864C24.3702 15.1721 24.4282 14.9845 24.5442 14.8235C24.6614 14.6625 24.8206 14.5376 25.0219 14.4489C25.2231 14.3589 25.451 14.3139 25.7055 14.3139C25.9635 14.3139 26.1896 14.3589 26.3837 14.4489C26.579 14.5376 26.7323 14.6613 26.8436 14.82C26.9549 14.9774 27.0123 15.1585 27.0158 15.3633H26.3819ZM27.4528 18V14.3636H28.1115V17.4478H29.7131V18H27.4528ZM31.1251 18V14.3636H33.4901V14.9158H31.7838V15.9031H33.3676V16.4553H31.7838V17.4478H33.5043V18H31.1251ZM36.9505 14.3636V18H36.3645L34.6511 15.5231H34.6209V18H33.9622V14.3636H34.5517L36.2633 16.8423H36.2953V14.3636H36.9505ZM40.5808 15.5906H39.9167C39.8978 15.4817 39.8629 15.3852 39.812 15.3011C39.7611 15.2159 39.6978 15.1437 39.622 15.0845C39.5462 15.0253 39.4598 14.9809 39.3628 14.9513C39.2669 14.9206 39.1633 14.9052 39.052 14.9052C38.8544 14.9052 38.6792 14.9549 38.5265 15.0543C38.3738 15.1526 38.2542 15.297 38.1678 15.4876C38.0814 15.677 38.0382 15.9084 38.0382 16.1818C38.0382 16.46 38.0814 16.6944 38.1678 16.8849C38.2554 17.0743 38.375 17.2176 38.5265 17.3146C38.6792 17.4105 38.8538 17.4585 39.0503 17.4585C39.1592 17.4585 39.261 17.4442 39.3557 17.4158C39.4515 17.3862 39.5374 17.343 39.6131 17.2862C39.6901 17.2294 39.7546 17.1596 39.8067 17.0767C39.8599 16.9938 39.8966 16.8991 39.9167 16.7926L40.5808 16.7962C40.5559 16.969 40.5021 17.1312 40.4192 17.2827C40.3376 17.4342 40.2304 17.5679 40.0979 17.6839C39.9653 17.7988 39.8102 17.8887 39.6327 17.9538C39.4551 18.0178 39.258 18.0497 39.0414 18.0497C38.7218 18.0497 38.4365 17.9757 38.1856 17.8278C37.9346 17.6798 37.7369 17.4661 37.5925 17.1868C37.4481 16.9074 37.3759 16.5724 37.3759 16.1818C37.3759 15.79 37.4487 15.455 37.5943 15.1768C37.7399 14.8975 37.9382 14.6838 38.1891 14.5359C38.4401 14.3879 38.7242 14.3139 39.0414 14.3139C39.2438 14.3139 39.432 14.3423 39.606 14.3991C39.78 14.456 39.9351 14.5394 40.0712 14.6495C40.2073 14.7584 40.3192 14.8922 40.4068 15.0508C40.4956 15.2082 40.5536 15.3881 40.5808 15.5906ZM40.9841 18V14.3636H42.3477C42.627 14.3636 42.8614 14.4122 43.0508 14.5092C43.2414 14.6063 43.3852 14.7424 43.4823 14.9176C43.5805 15.0916 43.6297 15.2946 43.6297 15.5266C43.6297 15.7598 43.5799 15.9622 43.4805 16.1339C43.3823 16.3043 43.2373 16.4363 43.0455 16.5298C42.8537 16.6222 42.6182 16.6683 42.3388 16.6683H41.3676V16.1214H42.25C42.4134 16.1214 42.5471 16.099 42.6513 16.054C42.7555 16.0078 42.8324 15.9409 42.8821 15.8533C42.933 15.7646 42.9585 15.6557 42.9585 15.5266C42.9585 15.3976 42.933 15.2875 42.8821 15.1964C42.8312 15.104 42.7537 15.0342 42.6495 14.9869C42.5454 14.9383 42.411 14.9141 42.2465 14.9141H41.6428V18H40.9841ZM42.8626 16.3523L43.7628 18H43.0277L42.1435 16.3523H42.8626ZM43.6458 14.3636H44.3898L45.2793 15.9723H45.3149L46.2044 14.3636H46.9484L45.6256 16.6435V18H44.9686V16.6435L43.6458 14.3636ZM47.2149 18V14.3636H48.5786C48.8579 14.3636 49.0923 14.4157 49.2817 14.5199C49.4723 14.6241 49.6161 14.7673 49.7131 14.9496C49.8114 15.1307 49.8605 15.3366 49.8605 15.5675C49.8605 15.8007 49.8114 16.0078 49.7131 16.1889C49.6149 16.37 49.4699 16.5127 49.2781 16.6168C49.0864 16.7198 48.8502 16.7713 48.5697 16.7713H47.6659V16.2298H48.4809C48.6442 16.2298 48.778 16.2013 48.8822 16.1445C48.9863 16.0877 49.0633 16.0096 49.113 15.9102C49.1639 15.8107 49.1893 15.6965 49.1893 15.5675C49.1893 15.4384 49.1639 15.3248 49.113 15.2266C49.0633 15.1283 48.9857 15.052 48.8804 14.9975C48.7762 14.9419 48.6419 14.9141 48.4773 14.9141H47.8737V18H47.2149ZM50.0729 14.9158V14.3636H52.9742V14.9158H51.8502V18H51.1968V14.9158H50.0729ZM53.9922 14.3636V18H53.3335V14.3636H53.9922ZM57.7548 16.1818C57.7548 16.5736 57.6814 16.9092 57.5347 17.1886C57.3891 17.4667 57.1902 17.6798 56.9381 17.8278C56.6871 17.9757 56.4024 18.0497 56.084 18.0497C55.7656 18.0497 55.4803 17.9757 55.2282 17.8278C54.9772 17.6786 54.7784 17.465 54.6316 17.1868C54.486 16.9074 54.4132 16.5724 54.4132 16.1818C54.4132 15.79 54.486 15.455 54.6316 15.1768C54.7784 14.8975 54.9772 14.6838 55.2282 14.5359C55.4803 14.3879 55.7656 14.3139 56.084 14.3139C56.4024 14.3139 56.6871 14.3879 56.9381 14.5359C57.1902 14.6838 57.3891 14.8975 57.5347 15.1768C57.6814 15.455 57.7548 15.79 57.7548 16.1818ZM57.0925 16.1818C57.0925 15.906 57.0493 15.6734 56.9629 15.484C56.8777 15.2934 56.7593 15.1496 56.6078 15.0526C56.4563 14.9543 56.2817 14.9052 56.084 14.9052C55.8863 14.9052 55.7117 14.9543 55.5602 15.0526C55.4087 15.1496 55.2897 15.2934 55.2033 15.484C55.1181 15.6734 55.0755 15.906 55.0755 16.1818C55.0755 16.4576 55.1181 16.6908 55.2033 16.8814C55.2897 17.0708 55.4087 17.2146 55.5602 17.3129C55.7117 17.4099 55.8863 17.4585 56.084 17.4585C56.2817 17.4585 56.4563 17.4099 56.6078 17.3129C56.7593 17.2146 56.8777 17.0708 56.9629 16.8814C57.0493 16.6908 57.0925 16.4576 57.0925 16.1818ZM61.1659 14.3636V18H60.58L58.8665 15.5231H58.8363V18H58.1776V14.3636H58.7671L60.4787 16.8423H60.5107V14.3636H61.1659Z" fill="#4F4F4F" fill-opacity="0.5"/>
</svg>
