<svg width="88" height="14" viewBox="0 0 88 14" fill="none" xmlns="http://www.w3.org/2000/svg">
<path d="M7.13208 0L8.73333 4.92814H13.9151L9.72295 7.9739L11.3242 12.902L7.13208 9.85629L2.93995 12.902L4.5412 7.9739L0.349069 4.92814H5.53082L7.13208 0Z" fill="#FFDE00"/>
<path d="M24.5662 0L26.1674 4.92814H31.3492L27.157 7.9739L28.7583 12.902L24.5662 9.85629L20.374 12.902L21.9753 7.9739L17.7832 4.92814H22.9649L24.5662 0Z" fill="#FFDE00"/>
<path d="M42.0002 0L43.6015 4.92814H48.7832L44.5911 7.9739L46.1924 12.902L42.0002 9.85629L37.8081 12.902L39.4094 7.9739L35.2172 4.92814H40.399L42.0002 0Z" fill="#FFDE00"/>
<path d="M59.4338 0L61.0351 4.92814H66.2168L62.0247 7.9739L63.626 12.902L59.4338 9.85629L55.2417 12.902L56.843 7.9739L52.6508 4.92814H57.8326L59.4338 0Z" fill="#FFDE00"/>
<path d="M76.8679 0L78.4692 4.92814H83.6509L79.4588 7.9739L81.06 12.902L76.8679 9.85629L72.6758 12.902L74.277 7.9739L70.0849 4.92814H75.2667L76.8679 0Z" fill="#FFDE00"/>
</svg>
