<svg width="143" height="27" viewBox="0 0 143 27" fill="none" xmlns="http://www.w3.org/2000/svg">
<path d="M97.628 3.90488C85.4414 2.99591 74.2299 2.20712 62.159 2.97027C56.4149 2.93855 49.716 3.40854 44.0676 4.01589C39.324 4.52593 34.5828 5.13979 29.8949 5.76088C25.6979 6.31693 21.3542 6.72841 17.2264 7.38435C8.9918 8.69288 -2.55769 13.7471 2.38591 18.232C4.71201 20.3422 9.30369 21.4184 14.0129 22.0831C24.2422 23.527 35.2433 24.4131 45.8704 25.1378C72.971 26.9859 102.397 27.3223 128.784 22.8375C133.187 22.089 138.968 20.5638 141.102 18.4586C142.894 16.6912 142.684 14.7428 141.808 12.8183C140.616 10.2006 136.082 8.99154 131.497 7.7242C122.516 5.24168 113.376 4.47409 103.39 3.11C88.4321 1.06673 73.0908 0.972826 57.7244 1.18896C51.433 1.27745 45.491 2.19668 39.3626 2.90777C35.6735 3.33583 32.8312 3.40397 27.1673 4.53462" stroke="#D9D9D9" stroke-linecap="round" stroke-dasharray="6 6"/>
</svg>
