<svg width="79" height="27" viewBox="0 0 79 27" fill="none" xmlns="http://www.w3.org/2000/svg">
<path d="M53.8766 3.50254C47.1967 2.52464 41.0515 1.67202 34.4456 2.35208C31.2996 2.28434 27.6338 2.70781 24.5443 3.27404C21.9497 3.74957 19.357 4.32799 16.7936 4.91392C14.4986 5.4385 12.1224 5.81886 9.8659 6.44287C5.36448 7.6877 -0.928463 12.6239 1.80761 17.1001C3.09501 19.2062 5.61658 20.3018 8.19989 20.9904C13.8113 22.4861 19.8419 23.4338 25.6666 24.2193C40.5204 26.2222 56.6381 26.7416 71.0605 22.4634C73.4673 21.7495 76.6236 20.2744 77.7789 18.2014C78.7488 16.461 78.6212 14.5287 78.1291 12.6158C77.4597 10.0139 74.9688 8.78694 72.4497 7.50191C67.5153 4.98473 62.5051 4.16621 57.0274 2.75116C48.8223 0.631547 40.4198 0.441518 32.0056 0.558608C28.5606 0.606549 25.3122 1.48003 21.9605 2.14606C19.9428 2.54699 18.3866 2.59656 15.292 3.68135" stroke="#D9D9D9" stroke-linecap="round" stroke-dasharray="6 6"/>
</svg>
