<svg width="117" height="24" viewBox="0 0 117 24" fill="none" xmlns="http://www.w3.org/2000/svg">
<path d="M79.7025 3.84051C69.7763 3.06268 60.6444 2.38738 50.8132 3.02954C46.1348 2.9998 40.6789 3.39564 36.0786 3.90863C32.2154 4.33943 28.3541 4.8584 24.5362 5.38353C21.1181 5.85367 17.5804 6.20097 14.2187 6.75597C7.51243 7.86313 -1.89193 12.1495 2.13673 15.9603C4.03232 17.7535 7.77268 18.6696 11.6086 19.2363C19.9408 20.4675 28.9014 21.2253 37.5573 21.8459C59.6311 23.4285 83.5983 23.7285 105.088 19.9329C108.674 19.2995 113.381 18.0072 115.119 16.2205C116.577 14.7205 116.405 13.0659 115.69 11.4312C114.718 9.20769 111.025 8.17879 107.29 7.10035C99.9737 4.98785 92.5295 4.33156 84.3954 3.16833C72.2113 1.42591 59.716 1.33868 47.2005 1.51472C42.0763 1.58679 37.2371 2.36448 32.246 2.96534C29.2415 3.32704 26.9265 3.38352 22.314 4.34088" stroke="#D9D9D9" stroke-linecap="round" stroke-dasharray="6 6"/>
</svg>
