<svg width="111" height="35" viewBox="0 0 111 35" fill="none" xmlns="http://www.w3.org/2000/svg">
<path d="M74.9842 4.42984C65.5482 3.49208 56.8695 2.69012 47.6062 3.89125C43.1784 3.95721 38.0399 4.6833 33.7177 5.56577C30.0879 6.30686 26.4652 7.18083 22.8839 8.06307C19.6775 8.85293 16.3509 9.4604 13.2029 10.3769C6.92299 12.2051 -1.72419 18.891 2.30927 24.5418C4.20713 27.2007 7.79912 28.4934 11.4611 29.2572C19.4157 30.9162 27.937 31.8467 36.1622 32.5774C57.1375 34.441 79.8292 34.3257 99.938 28.0936C103.294 27.0535 107.672 24.9934 109.211 22.2582C110.504 19.9619 110.244 17.471 109.473 15.0231C108.424 11.6934 104.87 10.2295 101.273 8.69179C94.2288 5.67974 87.1479 4.86646 79.3848 3.30514C67.7564 0.966419 55.9301 1.13083 44.1 1.69269C39.2564 1.92274 34.7237 3.20999 30.0368 4.2342C27.2155 4.85075 25.0287 4.99074 20.7208 6.54355" stroke="#D9D9D9" stroke-linecap="round" stroke-dasharray="6 6"/>
</svg>
