<svg width="75" height="31" viewBox="0 0 75 31" fill="none" xmlns="http://www.w3.org/2000/svg">
<path d="M50.706 4.09554C44.4536 2.93849 38.7018 1.92868 32.5237 2.69888C29.5802 2.61051 26.152 3.09149 23.2634 3.74016C20.8374 4.28491 18.4137 4.94927 16.0173 5.62245C13.8718 6.22513 11.6499 6.65995 9.54079 7.37832C5.33335 8.81139 -0.5387 14.5295 2.03494 19.7405C3.24591 22.1924 5.60838 23.4735 8.02733 24.2817C13.2818 26.0373 18.9266 27.1573 24.3784 28.0881C38.2811 30.4615 53.3617 31.1145 66.8413 26.1862C69.0908 25.3638 72.0391 23.659 73.1135 21.2531C74.0155 19.2333 73.8901 16.9869 73.4238 14.7621C72.7894 11.7358 70.4552 10.3021 68.0945 8.80084C63.4703 5.86004 58.7804 4.89334 53.6513 3.23186C45.9685 0.743132 38.107 0.496537 30.2354 0.60687C27.0125 0.652044 23.9763 1.65734 20.8426 2.4212C18.9562 2.88102 17.5004 2.93387 14.6086 4.18523" stroke="#D9D9D9" stroke-linecap="round" stroke-dasharray="6 6"/>
</svg>
